<svg style="" viewBox="0 0 54 13" fill="white" xmlns="http://www.w3.org/2000/svg">
<path d="M35.2795 12.335H37.2646V9.93769H35.7913C35.0917 9.93769 34.5227 9.36862 34.5227 8.66902V4.85422H37.2646V2.59849H34.5227V0.158691H31.3994V8.53556C31.3994 11.2702 32.4877 12.335 35.2795 12.335V12.335Z" fill="white"></path>
<path d="M41.842 0.158691H38.7188V12.335H41.842V0.158691Z" fill="white"></path>
<path d="M48.5939 2.1145C45.5219 2.1145 43.2061 4.42304 43.2061 7.4847C43.2061 10.5464 45.4721 12.819 48.5939 12.819C51.7157 12.819 54 10.5178 54 7.46637C54 4.41497 51.6761 2.11377 48.5939 2.11377V2.1145ZM48.5939 10.1511C47.1287 10.1511 46.1056 9.05477 46.1056 7.4847C46.1056 5.91464 47.1287 4.7831 48.5939 4.7831C50.0591 4.7831 51.1172 5.9117 51.1172 7.4671C51.1172 9.0225 50.0561 10.1511 48.5939 10.1511V10.1511Z" fill="white"></path>
<path d="M13.1375 4.92297C14.2866 4.92297 15.2216 5.85797 15.2216 7.0071V12.3348H18.2451V6.3779C18.2451 3.8479 16.6369 2.27564 14.049 2.27564C12.4408 2.27564 11.2931 2.99504 10.6368 4.4133L10.4593 4.7961L10.3171 4.39864C9.814 2.9899 8.7492 2.2749 7.15273 2.2749C5.90753 2.2749 4.85447 2.68117 4.34113 3.5993C4.171 3.90437 4.08887 4.18597 4.08887 4.18597V2.59684H0.947266V12.3348H3.99793L4.0896 6.72037C4.2304 5.69957 5.01433 4.92297 6.0608 4.92297C7.20993 4.92297 8.14493 5.85797 8.14493 7.0071V12.3348H11.0753V6.71304C11.2161 5.69224 12.0917 4.92297 13.1375 4.92297V4.92297Z" fill="white"></path>
<path d="M24.8685 2.21436C21.8156 2.21436 19.5137 4.52802 19.5137 7.59556C19.5137 10.6631 21.8486 12.9056 25.1926 12.9056C27.5451 12.9056 29.1123 11.7345 29.795 10.6382L30.0055 10.2994L27.7145 9.10696C27.3559 9.79849 26.4063 10.2935 25.2879 10.2935C23.8623 10.2935 22.7059 9.48976 22.7059 8.49829H22.7088V8.49536H30.0942L30.1448 8.07296C30.1668 7.88742 30.1668 7.71142 30.1668 7.54129C30.1668 4.30436 28.0871 2.21289 24.8685 2.21289V2.21436ZM27.0531 6.52636H22.7059C22.7059 6.52636 22.7059 6.52342 22.7059 6.52196C22.7059 5.55249 23.679 4.76636 24.8795 4.76636C26.0799 4.76636 27.0531 5.55249 27.0531 6.52196C27.0531 6.52196 27.0531 6.52489 27.0531 6.52636Z" fill="white"></path>
</svg>